<svg width="48" height="48" viewBox="0 0 48 48" fill="none" xmlns="http://www.w3.org/2000/svg">
<path d="M24 46C19.6488 46 15.3953 44.7097 11.7775 42.2923C8.15958 39.875 5.33979 36.439 3.67466 32.419C2.00953 28.3991 1.57386 23.9756 2.42273 19.708C3.27161 15.4404 5.36691 11.5204 8.44366 8.44366C11.5204 5.36691 15.4404 3.27161 19.708 2.42273C23.9756 1.57386 28.3991 2.00953 32.419 3.67466C36.439 5.33979 39.875 8.15958 42.2923 11.7775C44.7097 15.3953 46 19.6488 46 24C45.9934 29.8327 43.6734 35.4247 39.5491 39.5491C35.4247 43.6734 29.8327 45.9934 24 46Z" fill="#FFD764"/>
<path d="M35.6 32C35.8601 31.021 35.9945 30.0129 36 29C36 28.7348 35.8946 28.4804 35.7071 28.2929C35.5196 28.1054 35.2652 28 35 28H13C12.7348 28 12.4804 28.1054 12.2929 28.2929C12.1054 28.4804 12 28.7348 12 29C12.0038 30.0127 12.1366 31.0208 12.395 32H35.6Z" fill="white"/>
<path d="M12.3999 32C13.065 34.5707 14.5652 36.8476 16.6649 38.4731C18.7645 40.0986 21.3446 40.9806 23.9999 40.9806C26.6552 40.9806 29.2353 40.0986 31.3349 38.4731C33.4346 36.8476 34.9348 34.5707 35.5999 32H12.3999Z" fill="#AE453E"/>
<path d="M18.0142 39.3853C19.8317 40.4431 21.8972 41.0004 24.0002 41.0004C26.1032 41.0004 28.1686 40.4431 29.9862 39.3853C29.3651 38.3526 28.4875 37.4981 27.4386 36.9049C26.3897 36.3117 25.2052 36 24.0002 36C22.7951 36 21.6106 36.3117 20.5617 36.9049C19.5128 37.4981 18.6352 38.3526 18.0142 39.3853Z" fill="#E86C60"/>
<path d="M20.9492 14.0835L16.3782 14.1955L13.6952 10.4955C13.5858 10.3444 13.4363 10.2269 13.2636 10.1564C13.0909 10.0858 12.9019 10.0649 12.718 10.0961C12.534 10.1273 12.3625 10.2094 12.2228 10.333C12.083 10.4566 11.9806 10.6168 11.9272 10.7955L10.6212 15.1775L6.27118 16.5855C6.09378 16.643 5.93599 16.749 5.81565 16.8915C5.69531 17.0339 5.6172 17.2072 5.59016 17.3917C5.56312 17.5763 5.58821 17.7647 5.66261 17.9357C5.73701 18.1067 5.85774 18.2535 6.01118 18.3595L9.77418 20.9595V25.5315C9.77319 25.7184 9.8246 25.9019 9.92258 26.061C10.0206 26.2202 10.1612 26.3487 10.3285 26.432C10.4958 26.5153 10.6832 26.5501 10.8692 26.5323C11.0553 26.5145 11.2326 26.445 11.3812 26.3315L15.0142 23.5545L19.3602 24.9715C19.5375 25.0294 19.7275 25.0366 19.9087 24.9922C20.0899 24.9478 20.2551 24.8536 20.3856 24.7202C20.516 24.5868 20.6066 24.4196 20.647 24.2375C20.6874 24.0553 20.676 23.8655 20.6142 23.6895L19.0902 19.3675L21.7812 15.6725C21.8911 15.5217 21.9567 15.3432 21.9705 15.1571C21.9843 14.9711 21.9457 14.7848 21.8592 14.6195C21.7787 14.4492 21.649 14.307 21.4867 14.2114C21.3244 14.1159 21.1371 14.0713 20.9492 14.0835Z" fill="#E2AC4B"/>
<path d="M42.4099 17.3904C42.3828 17.2059 42.3047 17.0327 42.1844 16.8903C42.064 16.7479 41.9063 16.6419 41.7289 16.5844L37.3789 15.1764L36.0729 10.7994C36.0194 10.6207 35.9171 10.4605 35.7773 10.3369C35.6376 10.2133 35.466 10.1312 35.2821 10.1C35.0982 10.0688 34.9092 10.0897 34.7365 10.1603C34.5638 10.2308 34.4143 10.3483 34.3049 10.4994L31.6219 14.1994L27.0509 14.0874C26.8628 14.0739 26.675 14.118 26.5124 14.2137C26.3499 14.3094 26.2203 14.4523 26.1409 14.6234C26.0544 14.7887 26.0158 14.975 26.0296 15.161C26.0434 15.3471 26.1089 15.5256 26.2189 15.6764L28.9099 19.3714L27.3909 23.6844C27.3291 23.8604 27.3177 24.0502 27.3581 24.2324C27.3985 24.4145 27.489 24.5817 27.6195 24.7151C27.75 24.8485 27.9151 24.9427 28.0963 24.9871C28.2775 25.0315 28.4676 25.0243 28.6449 24.9664L32.9909 23.5494L36.6239 26.3264C36.7989 26.4577 37.0121 26.5279 37.2309 26.5264C37.4961 26.5264 37.7505 26.4211 37.938 26.2335C38.1255 26.046 38.2309 25.7916 38.2309 25.5264L38.2259 20.9544L41.9889 18.3544C42.1417 18.2487 42.262 18.1025 42.3364 17.9322C42.4108 17.762 42.4362 17.5743 42.4099 17.3904Z" fill="#E2AC4B"/>
</svg>
