<svg width="48" height="48" viewBox="0 0 48 48" fill="none" xmlns="http://www.w3.org/2000/svg">
<path d="M24 46C19.6488 46 15.3953 44.7097 11.7775 42.2923C8.15958 39.875 5.33979 36.439 3.67466 32.419C2.00953 28.3991 1.57386 23.9756 2.42273 19.708C3.27161 15.4404 5.36691 11.5204 8.44366 8.44366C11.5204 5.36691 15.4404 3.27161 19.708 2.42273C23.9756 1.57386 28.3991 2.00953 32.419 3.67466C36.439 5.33979 39.875 8.15958 42.2923 11.7775C44.7097 15.3953 46 19.6488 46 24C45.9934 29.8327 43.6734 35.4247 39.5491 39.5491C35.4247 43.6734 29.8327 45.9934 24 46Z" fill="#FFD764"/>
<path opacity="0.5" d="M38 31C39.6569 31 41 29.6569 41 28C41 26.3431 39.6569 25 38 25C36.3431 25 35 26.3431 35 28C35 29.6569 36.3431 31 38 31Z" fill="#E86C60"/>
<path opacity="0.5" d="M10 31C11.6569 31 13 29.6569 13 28C13 26.3431 11.6569 25 10 25C8.34315 25 7 26.3431 7 28C7 29.6569 8.34315 31 10 31Z" fill="#E86C60"/>
<path d="M19 24C18.7348 24 18.4804 23.8946 18.2929 23.7071C18.1054 23.5196 18 23.2652 18 23C18 22.4696 17.7893 21.9609 17.4142 21.5858C17.0391 21.2107 16.5304 21 16 21C15.4696 21 14.9609 21.2107 14.5858 21.5858C14.2107 21.9609 14 22.4696 14 23C14 23.2652 13.8946 23.5196 13.7071 23.7071C13.5196 23.8946 13.2652 24 13 24C12.7348 24 12.4804 23.8946 12.2929 23.7071C12.1054 23.5196 12 23.2652 12 23C12 21.9391 12.4214 20.9217 13.1716 20.1716C13.9217 19.4214 14.9391 19 16 19C17.0609 19 18.0783 19.4214 18.8284 20.1716C19.5786 20.9217 20 21.9391 20 23C20 23.2652 19.8946 23.5196 19.7071 23.7071C19.5196 23.8946 19.2652 24 19 24Z" fill="#444444"/>
<path d="M35 24C34.7348 24 34.4804 23.8946 34.2929 23.7071C34.1054 23.5196 34 23.2652 34 23C34 22.4696 33.7893 21.9609 33.4142 21.5858C33.0391 21.2107 32.5304 21 32 21C31.4696 21 30.9609 21.2107 30.5858 21.5858C30.2107 21.9609 30 22.4696 30 23C30 23.2652 29.8946 23.5196 29.7071 23.7071C29.5196 23.8946 29.2652 24 29 24C28.7348 24 28.4804 23.8946 28.2929 23.7071C28.1054 23.5196 28 23.2652 28 23C28 21.9391 28.4214 20.9217 29.1716 20.1716C29.9217 19.4214 30.9391 19 32 19C33.0609 19 34.0783 19.4214 34.8284 20.1716C35.5786 20.9217 36 21.9391 36 23C36 23.2652 35.8946 23.5196 35.7071 23.7071C35.5196 23.8946 35.2652 24 35 24Z" fill="#444444"/>
<path d="M24.0589 38.9991C22.4733 38.9956 20.9166 38.5743 19.5455 37.7779C18.1744 36.9814 17.0374 35.8377 16.2489 34.4621C16.1171 34.2319 16.0821 33.9587 16.1517 33.7027C16.2213 33.4467 16.3897 33.2289 16.6199 33.0971C16.8501 32.9652 17.1233 32.9303 17.3793 32.9999C17.6352 33.0694 17.8531 33.2379 17.9849 33.4681C18.5955 34.5404 19.479 35.4319 20.5458 36.0521C21.6125 36.6722 22.8245 36.9989 24.0584 36.9989C25.2924 36.9989 26.5043 36.6722 27.5711 36.0521C28.6378 35.4319 29.5214 34.5404 30.1319 33.4681C30.2637 33.2379 30.4816 33.0694 30.7376 32.9999C30.9936 32.9303 31.2667 32.9652 31.4969 33.0971C31.7271 33.2289 31.8955 33.4467 31.9651 33.7027C32.0347 33.9587 31.9997 34.2319 31.8679 34.4621C31.0796 35.8377 29.9427 36.9813 28.5718 37.7778C27.2009 38.5742 25.6444 38.9955 24.0589 38.9991Z" fill="#444444"/>
</svg>
