<svg width="20" height="20" viewBox="0 0 20 20" fill="none" xmlns="http://www.w3.org/2000/svg">
<path d="M10.0002 19.1673C8.18717 19.1673 6.41489 18.6297 4.90744 17.6225C3.39999 16.6152 2.22507 15.1836 1.53127 13.5086C0.837468 11.8336 0.655937 9.99049 1.00964 8.21233C1.36333 6.43417 2.23637 4.80083 3.51836 3.51884C4.80034 2.23686 6.43368 1.36382 8.21184 1.01012C9.99 0.656426 11.8331 0.837956 13.5081 1.53176C15.1831 2.22556 16.6147 3.40048 17.622 4.90793C18.6292 6.41538 19.1668 8.18766 19.1668 10.0007C19.1641 12.431 18.1974 14.7609 16.4789 16.4794C14.7605 18.1979 12.4305 19.1646 10.0002 19.1673Z" fill="#FFD764"/>
<path d="M5.8335 10.418C5.58627 10.418 5.3446 10.3447 5.13903 10.2073C4.93347 10.07 4.77326 9.87473 4.67865 9.64632C4.58404 9.41792 4.55928 9.16658 4.60752 8.92411C4.65575 8.68163 4.7748 8.4589 4.94961 8.28409C5.12443 8.10927 5.34716 7.99022 5.58963 7.94199C5.83211 7.89376 6.08344 7.91851 6.31185 8.01312C6.54026 8.10773 6.73548 8.26795 6.87284 8.47351C7.01019 8.67907 7.0835 8.92074 7.0835 9.16797C7.0835 9.49949 6.9518 9.81743 6.71738 10.0519C6.48296 10.2863 6.16502 10.418 5.8335 10.418Z" fill="#292D34"/>
<path d="M14.167 10.418C13.9198 10.418 13.6781 10.3447 13.4725 10.2073C13.267 10.07 13.1068 9.87473 13.0121 9.64632C12.9175 9.41792 12.8928 9.16658 12.941 8.92411C12.9892 8.68163 13.1083 8.4589 13.2831 8.28409C13.4579 8.10927 13.6807 7.99022 13.9231 7.94199C14.1656 7.89376 14.4169 7.91851 14.6453 8.01312C14.8738 8.10773 15.069 8.26795 15.2063 8.47351C15.3437 8.67907 15.417 8.92074 15.417 9.16797C15.417 9.49949 15.2853 9.81743 15.0509 10.0519C14.8165 10.2863 14.4985 10.418 14.167 10.418Z" fill="#444444"/>
<path d="M6.46357 15.8347C6.39692 15.8347 6.33125 15.8187 6.27205 15.7881C6.21286 15.7574 6.16188 15.7131 6.12339 15.6586C6.0849 15.6042 6.06002 15.5414 6.05084 15.4754C6.04167 15.4094 6.04846 15.3421 6.07066 15.2793C6.35737 14.4661 6.88931 13.7618 7.59313 13.2637C8.29695 12.7656 9.13797 12.498 10.0002 12.498C10.8625 12.498 11.7035 12.7656 12.4074 13.2637C13.1112 13.7618 13.6431 14.4661 13.9298 15.2793C13.9666 15.3835 13.9605 15.498 13.9129 15.5977C13.8652 15.6974 13.7799 15.7741 13.6757 15.8109C13.5714 15.8477 13.4569 15.8416 13.3572 15.794C13.2575 15.7463 13.1808 15.661 13.144 15.5568C12.9147 14.9061 12.4891 14.3427 11.926 13.9441C11.363 13.5456 10.6901 13.3316 10.0002 13.3316C9.31038 13.3316 8.63752 13.5456 8.07445 13.9441C7.51137 14.3427 7.08582 14.9061 6.85649 15.5568C6.82779 15.638 6.77458 15.7084 6.70421 15.7582C6.63384 15.808 6.54977 15.8347 6.46357 15.8347Z" fill="#444444"/>
</svg>
