<svg width="48" height="48" viewBox="0 0 48 48" fill="none" xmlns="http://www.w3.org/2000/svg">
<path d="M24 46C19.6488 46 15.3953 44.7097 11.7775 42.2923C8.15958 39.875 5.33979 36.439 3.67466 32.419C2.00953 28.3991 1.57386 23.9756 2.42273 19.708C3.27161 15.4404 5.36691 11.5204 8.44366 8.44366C11.5204 5.36691 15.4404 3.27161 19.708 2.42273C23.9756 1.57386 28.3991 2.00953 32.419 3.67466C36.439 5.33979 39.875 8.15958 42.2923 11.7775C44.7097 15.3953 46 19.6488 46 24C45.9934 29.8327 43.6734 35.4247 39.5491 39.5491C35.4247 43.6734 29.8327 45.9934 24 46Z" fill="#FFD764"/>
<path d="M35.6 32C35.8601 31.021 35.9945 30.0129 36 29C36 28.7348 35.8946 28.4804 35.7071 28.2929C35.5196 28.1054 35.2652 28 35 28H13C12.7348 28 12.4804 28.1054 12.2929 28.2929C12.1054 28.4804 12 28.7348 12 29C12.0038 30.0127 12.1366 31.0208 12.395 32H35.6Z" fill="white"/>
<path d="M12.3999 32C13.065 34.5707 14.5652 36.8476 16.6649 38.4731C18.7645 40.0986 21.3446 40.9806 23.9999 40.9806C26.6552 40.9806 29.2353 40.0986 31.3349 38.4731C33.4346 36.8476 34.9348 34.5707 35.5999 32H12.3999Z" fill="#AE453E"/>
<path d="M18.0142 39.3853C19.8317 40.4431 21.8972 41.0004 24.0002 41.0004C26.1032 41.0004 28.1686 40.4431 29.9862 39.3853C29.3651 38.3526 28.4875 37.4981 27.4386 36.9049C26.3897 36.3117 25.2052 36 24.0002 36C22.7951 36 21.6106 36.3117 20.5617 36.9049C19.5128 37.4981 18.6352 38.3526 18.0142 39.3853Z" fill="#E86C60"/>
<path d="M19 23.9997C18.8277 23.9998 18.6582 23.9555 18.508 23.8708C18.3579 23.7862 18.2321 23.6642 18.143 23.5167L16 19.9627L13.856 23.5167C13.7881 23.6291 13.6987 23.727 13.593 23.8049C13.4873 23.8828 13.3672 23.939 13.2397 23.9705C13.1122 24.002 12.9798 24.0081 12.8499 23.9883C12.7201 23.9686 12.5954 23.9236 12.483 23.8557C12.3706 23.7878 12.2727 23.6984 12.1948 23.5927C12.1169 23.4869 12.0606 23.3669 12.0292 23.2394C11.9977 23.1119 11.9916 22.9794 12.0113 22.8496C12.031 22.7198 12.0761 22.5951 12.144 22.4827L15.144 17.5107C15.2395 17.3719 15.3673 17.2584 15.5164 17.1799C15.6656 17.1015 15.8315 17.0605 16 17.0605C16.1685 17.0605 16.3345 17.1015 16.4836 17.1799C16.6327 17.2584 16.7605 17.3719 16.856 17.5107L19.856 22.4827C19.9476 22.6344 19.9973 22.8077 19.9999 22.9849C20.0025 23.1621 19.958 23.3368 19.8709 23.4911C19.7839 23.6454 19.6573 23.7739 19.5043 23.8632C19.3513 23.9526 19.1772 23.9997 19 23.9997Z" fill="#444444"/>
<path d="M35 23.9997C34.8277 23.9998 34.6582 23.9555 34.508 23.8708C34.3579 23.7862 34.2321 23.6642 34.143 23.5167L32 19.9627L29.856 23.5167C29.7881 23.6291 29.6987 23.727 29.593 23.8049C29.4873 23.8828 29.3672 23.939 29.2397 23.9705C29.1122 24.002 28.9798 24.0081 28.8499 23.9883C28.7201 23.9686 28.5954 23.9236 28.483 23.8557C28.3706 23.7878 28.2727 23.6984 28.1948 23.5927C28.1169 23.4869 28.0606 23.3669 28.0292 23.2394C27.9977 23.1119 27.9916 22.9794 28.0113 22.8496C28.031 22.7198 28.0761 22.5951 28.144 22.4827L31.144 17.5107C31.2395 17.3719 31.3673 17.2584 31.5164 17.1799C31.6656 17.1015 31.8315 17.0605 32 17.0605C32.1685 17.0605 32.3345 17.1015 32.4836 17.1799C32.6327 17.2584 32.7605 17.3719 32.856 17.5107L35.856 22.4827C35.9476 22.6344 35.9973 22.8077 35.9999 22.9849C36.0025 23.1621 35.958 23.3368 35.8709 23.4911C35.7839 23.6454 35.6573 23.7739 35.5043 23.8632C35.3513 23.9526 35.1772 23.9997 35 23.9997Z" fill="#444444"/>
</svg>
