<svg width="20" height="20" viewBox="0 0 20 20" fill="none" xmlns="http://www.w3.org/2000/svg">
<path d="M0.833166 9.99935C0.833166 8.18635 1.37078 6.41407 2.37803 4.90662C3.38527 3.39917 4.81691 2.22426 6.4919 1.53045C8.16689 0.836651 10.01 0.655121 11.7882 1.00882C13.5663 1.36252 15.1997 2.23556 16.4816 3.51754C17.7636 4.79952 18.6367 6.43286 18.9904 8.21102C19.3441 9.98918 19.1625 11.8323 18.4687 13.5073C17.7749 15.1823 16.6 16.6139 15.0926 17.6212C13.5851 18.6284 11.8128 19.166 9.99983 19.166C7.56953 19.1633 5.23955 18.1966 3.52107 16.4781C1.80258 14.7596 0.835924 12.4297 0.833166 9.99935Z" fill="#FFD764"/>
<path d="M12.9165 8.33203C12.9165 8.0848 12.9898 7.84313 13.1272 7.63757C13.2645 7.43201 13.4597 7.27179 13.6881 7.17718C13.9166 7.08257 14.1679 7.05782 14.4104 7.10605C14.6528 7.15428 14.8756 7.27333 15.0504 7.44815C15.2252 7.62296 15.3443 7.84569 15.3925 8.08817C15.4407 8.33064 15.416 8.58198 15.3214 8.81039C15.2267 9.03879 15.0665 9.23402 14.861 9.37137C14.6554 9.50872 14.4137 9.58203 14.1665 9.58203C13.835 9.58203 13.517 9.45034 13.2826 9.21591C13.0482 8.98149 12.9165 8.66355 12.9165 8.33203Z" fill="#292D34"/>
<path d="M4.58301 8.33203C4.58301 8.0848 4.65632 7.84313 4.79367 7.63757C4.93102 7.43201 5.12625 7.27179 5.35465 7.17718C5.58306 7.08257 5.83439 7.05782 6.07687 7.10605C6.31935 7.15428 6.54208 7.27333 6.71689 7.44815C6.89171 7.62296 7.01076 7.84569 7.05899 8.08817C7.10722 8.33064 7.08247 8.58198 6.98786 8.81039C6.89325 9.03879 6.73303 9.23402 6.52747 9.37137C6.32191 9.50872 6.08023 9.58203 5.83301 9.58203C5.50149 9.58203 5.18354 9.45034 4.94912 9.21591C4.7147 8.98149 4.58301 8.66355 4.58301 8.33203Z" fill="#444444"/>
<path d="M13.3333 12.5C13.4107 12.5 13.4866 12.5215 13.5524 12.5622C13.6182 12.6029 13.6714 12.6611 13.706 12.7303C13.7406 12.7995 13.7553 12.877 13.7483 12.9541C13.7414 13.0312 13.7131 13.1048 13.6667 13.1667C13.2397 13.7359 12.6861 14.1979 12.0497 14.5161C11.4133 14.8343 10.7115 15 10 15C9.28846 15 8.58669 14.8343 7.95027 14.5161C7.31385 14.1979 6.76026 13.7359 6.33333 13.1667C6.26703 13.0783 6.23856 12.9671 6.25419 12.8577C6.26982 12.7483 6.32826 12.6496 6.41667 12.5833C6.50507 12.517 6.6162 12.4886 6.72559 12.5042C6.83499 12.5198 6.9337 12.5783 7 12.6667C7.3493 13.1324 7.80224 13.5104 8.32295 13.7708C8.84366 14.0311 9.41783 14.1667 10 14.1667C10.5822 14.1667 11.1563 14.0311 11.6771 13.7708C12.1978 13.5104 12.6507 13.1324 13 12.6667C13.0388 12.6149 13.0891 12.5729 13.147 12.544C13.2049 12.5151 13.2686 12.5 13.3333 12.5Z" fill="#444444"/>
</svg>
