<svg width="80" height="36" viewBox="0 0 80 36" fill="none" xmlns="http://www.w3.org/2000/svg">
<path d="M0.867188 18H67" stroke="#C3C8D2" stroke-width="4.5"/>
<path d="M52.5436 31.0427C52.5435 30.7857 52.594 30.5313 52.6922 30.2938C52.7904 30.0564 52.9345 29.8406 53.1161 29.6588L64.7764 17.9999L53.1161 6.34089C52.7491 5.97388 52.5429 5.47609 52.5429 4.95705C52.5429 4.43801 52.7491 3.94022 53.1161 3.57321C53.4832 3.20619 53.9809 3 54.5 3C55.019 3 55.5168 3.20619 55.8838 3.57321L68.9267 16.616C69.1085 16.7977 69.2527 17.0134 69.3511 17.2509C69.4495 17.4883 69.5001 17.7428 69.5001 17.9999C69.5001 18.2569 69.4495 18.5114 69.3511 18.7488C69.2527 18.9863 69.1085 19.202 68.9267 19.3837L55.8838 32.4265C55.6102 32.7003 55.2615 32.8868 54.8819 32.9624C54.5023 33.0379 54.1088 32.9992 53.7512 32.851C53.3936 32.7029 53.088 32.452 52.873 32.1301C52.658 31.8082 52.5434 31.4298 52.5436 31.0427Z" fill="#C3C8D2"/>
</svg>
