<svg width="244" height="244" viewBox="0 0 244 244" fill="none" xmlns="http://www.w3.org/2000/svg">
<path d="M213.668 41.495C195.042 20.2872 169.64 6.19361 141.788 1.6155C113.937 -2.9626 85.3593 2.25808 60.9254 16.388C36.4915 30.518 17.7129 52.6829 7.78915 79.1062C-2.13457 105.529 -2.58936 134.576 6.50225 161.297C15.5939 188.018 33.6694 210.76 57.6489 225.648C81.6285 240.536 110.028 246.649 138.01 242.945C165.991 239.241 191.822 225.95 211.102 205.335C230.382 184.721 241.918 158.059 243.744 129.893L238.875 129.577C237.122 156.617 226.047 182.212 207.538 202.002C189.029 221.792 164.231 234.551 137.369 238.107C110.507 241.663 83.2433 235.795 60.223 221.502C37.2026 207.21 19.8501 185.377 11.1222 159.725C2.39422 134.073 2.83082 106.188 12.3576 80.8219C21.8844 55.4556 39.9118 34.1772 63.3684 20.6125C86.8249 7.04776 114.259 2.03591 140.997 6.43089C167.734 10.8259 192.121 24.3558 210.001 44.7152L213.668 41.495Z" fill="#C3C8D2"/>
</svg>
