<svg width="24" height="24" viewBox="0 0 24 24" fill="none" xmlns="http://www.w3.org/2000/svg">
<path d="M2.53243 14.13L7.23332 18.8309C7.40216 18.9998 7.60263 19.1338 7.82327 19.2252C8.04391 19.3166 8.2804 19.3636 8.51922 19.3636C8.75805 19.3636 8.99454 19.3166 9.21518 19.2252C9.43582 19.1338 9.63629 18.9998 9.80513 18.8309L18.3633 10.2727V3L11.0906 3L2.53243 11.5582C2.36351 11.727 2.22952 11.9275 2.13811 12.1481C2.04669 12.3687 1.99963 12.6052 1.99963 12.8441C1.99963 13.0829 2.04669 13.3194 2.13811 13.54C2.22952 13.7607 2.36351 13.9611 2.53243 14.13Z" stroke="#CE7A58" stroke-width="1.5" stroke-miterlimit="10" stroke-linecap="round" stroke-linejoin="round"/>
<path d="M12.9091 21.1819L22 12.0911V4.81836" stroke="#CE7A58" stroke-width="1.5" stroke-miterlimit="10" stroke-linecap="round" stroke-linejoin="round"/>
<path d="M12.0004 7.54571C12.0004 8.54987 12.8144 9.36389 13.8185 9.36389C14.8227 9.36389 15.6367 8.54987 15.6367 7.54571C15.6367 6.54156 14.8227 5.72754 13.8185 5.72754C12.8144 5.72754 12.0004 6.54156 12.0004 7.54571Z" fill="#CE7A58"/>
</svg>
