<svg width="64" height="64" viewBox="0 0 64 64" fill="none" xmlns="http://www.w3.org/2000/svg">
<rect width="64" height="64" rx="10" fill="#EAC344"/>
<path d="M27.9273 45.5755C27.9273 45.5755 17.0667 34.6307 17.0667 27.927C17.0667 21.055 22.6789 17.0664 27.9273 17.0664C33.1756 17.0664 38.7879 21.055 38.7879 27.927C38.7879 28.3628 38.7417 28.8162 38.6562 29.2846" stroke="white" stroke-width="2" stroke-miterlimit="10" stroke-linecap="round" stroke-linejoin="round"/>
<path d="M38.7878 37.4297V40.1448H41.503" stroke="white" stroke-width="2" stroke-miterlimit="10" stroke-linecap="round" stroke-linejoin="round"/>
<path d="M38.7879 46.9332C42.5367 46.9332 45.5758 43.8941 45.5758 40.1453C45.5758 36.3965 42.5367 33.3574 38.7879 33.3574C35.039 33.3574 32 36.3965 32 40.1453C32 43.8941 35.039 46.9332 38.7879 46.9332Z" stroke="white" stroke-width="2" stroke-miterlimit="10" stroke-linecap="round" stroke-linejoin="round"/>
<path d="M27.9272 31.9999C30.1765 31.9999 31.9999 30.1765 31.9999 27.9272C31.9999 25.6779 30.1765 23.8545 27.9272 23.8545C25.6779 23.8545 23.8545 25.6779 23.8545 27.9272C23.8545 30.1765 25.6779 31.9999 27.9272 31.9999Z" stroke="white" stroke-width="2" stroke-miterlimit="10" stroke-linecap="round" stroke-linejoin="round"/>
</svg>
