<svg width="64" height="64" viewBox="0 0 64 64" fill="none" xmlns="http://www.w3.org/2000/svg">
<rect width="64" height="64" rx="10" fill="#3AB5C2"/>
<path d="M26.5561 33.3574L22.4834 45.5756L17.0667 43.77L19.7818 35.6246L25.1985 37.4302" stroke="white" stroke-width="2" stroke-miterlimit="10" stroke-linecap="round" stroke-linejoin="round"/>
<path d="M35.2446 27.3164L41.4895 32L45.5622 30.6425" stroke="white" stroke-width="2" stroke-miterlimit="10" stroke-linecap="round" stroke-linejoin="round"/>
<path d="M36.7379 23.8543C38.6124 23.8543 40.1319 22.3348 40.1319 20.4603C40.1319 18.5859 38.6124 17.0664 36.7379 17.0664C34.8635 17.0664 33.344 18.5859 33.344 20.4603C33.344 22.3348 34.8635 23.8543 36.7379 23.8543Z" stroke="white" stroke-width="2" stroke-miterlimit="10" stroke-linecap="round" stroke-linejoin="round"/>
<path d="M30.6289 46.933L36.0741 23.7891" stroke="white" stroke-width="2" stroke-miterlimit="10" stroke-linecap="round" stroke-linejoin="round"/>
<path d="M30.6289 27.9268L27.9137 29.2843L26.5562 33.3571" stroke="white" stroke-width="2" stroke-miterlimit="10" stroke-linecap="round" stroke-linejoin="round"/>
<path d="M37.4167 36.0723L40.1319 38.7874V45.5753" stroke="white" stroke-width="2" stroke-miterlimit="10" stroke-linecap="round" stroke-linejoin="round"/>
</svg>
